# 3ds Max Wavefront OBJ Exporter v0.97b - (c)2007 guruware
# File Created: 23.09.2015 12:05:41

mtllib chancho.mtl

#
# object Cylinder001
#

v  -3.1051 11.1906 -0.0000
v  -3.1051 12.0030 -0.8019
v  -0.9363 11.9993 -0.8055
v  -0.9183 11.1831 -0.0000
v  0.0000 11.9977 -0.8071
v  -0.9363 12.8049 -0.0000
v  -3.1051 12.8049 -0.0000
v  0.0000 12.8049 -0.0000
v  -0.9363 11.9993 0.8055
v  -3.1051 12.0030 0.8019
v  0.0000 11.9978 0.8071
v  -2.0000 3.4465 -0.9003
v  -2.0000 3.1031 -0.9003
v  -2.9003 3.1031 -0.0000
v  -2.9003 3.4465 -0.0000
v  -2.0000 3.1031 0.9003
v  -2.0000 3.4465 0.9003
v  0.0000 3.4465 -0.9003
v  -0.9003 3.4465 -0.0000
v  0.0000 3.4465 0.9003
v  0.0000 3.1031 -0.9003
v  -0.9003 3.1031 -0.0000
v  0.0000 3.1031 0.9003
v  0.9183 11.1831 -0.0000
v  0.9363 11.9993 -0.8055
v  3.1051 11.1906 -0.0000
v  3.1051 12.0030 -0.8019
v  0.9363 12.8049 -0.0000
v  3.1051 12.8049 -0.0000
v  0.9363 11.9993 0.8055
v  3.1051 12.0030 0.8019
v  2.0000 3.4465 -0.9003
v  2.9003 3.4465 -0.0000
v  2.9003 3.1031 -0.0000
v  2.0000 3.1031 -0.9003
v  2.0000 3.4465 0.9003
v  2.0000 3.1031 0.9003
v  0.9003 3.4465 -0.0000
v  0.9003 3.1031 -0.0000
# 39 vertices

vn -0.0024 -0.7025 -0.7117
vn 0.0000 0.7071 -0.7071
vn 0.0000 0.7071 0.7071
vn -0.0024 -0.7025 0.7117
vn -1.0000 0.0000 -0.0000
vn -0.3827 0.0000 -0.9239
vn -0.7071 0.0000 -0.7071
vn -0.7071 0.0000 0.7071
vn -0.3827 0.0000 0.9239
vn -0.6676 0.0074 -0.7445
vn -0.6642 0.0081 -0.7475
vn -0.7029 -0.0007 -0.7113
vn -0.7071 -0.0016 -0.7071
vn -0.6594 -0.0015 0.7518
vn -0.7029 0.0069 0.7113
vn -0.7071 0.0077 0.7071
vn -0.6667 -0.0002 0.7453
vn 0.0000 0.0000 -1.0000
vn 0.0000 -1.0000 -0.0000
vn 0.0000 0.0000 1.0000
vn 0.0000 1.0000 -0.0000
vn 0.0024 -0.7025 -0.7117
vn 0.0024 -0.7025 0.7117
vn 1.0000 0.0000 -0.0000
vn 0.3827 0.0000 -0.9239
vn 0.7071 0.0000 -0.7071
vn 0.7071 0.0000 0.7071
vn 0.3827 0.0000 0.9239
vn 0.6676 0.0074 -0.7445
vn 0.7071 -0.0016 -0.7071
vn 0.7029 -0.0007 -0.7113
vn 0.6642 0.0081 -0.7475
vn 0.7071 0.0077 0.7071
vn 0.7029 0.0069 0.7113
vn 0.6594 -0.0015 0.7518
vn 0.6667 -0.0002 0.7453
# 36 vertex normals

vt 0.7500 0.0000 1.0000
vt 1.0000 0.0000 1.0000
vt 1.0000 0.2500 1.0000
vt 0.7500 0.2500 1.0000
vt 0.0000 1.0000 1.0000
vt 0.2500 0.2500 1.0000
vt 0.0000 0.2500 1.0000
vt 0.0000 0.0000 1.0000
vt 0.2500 0.0000 1.0000
vt 0.2500 0.5000 1.0000
vt 0.0000 0.5000 1.0000
vt 0.5000 0.2500 1.0000
vt 0.5000 0.0000 1.0000
vt 0.5000 0.5000 1.0000
vt 0.5000 1.0000 1.0000
vt 0.0000 0.5000 -0.2500
vt 0.5000 1.0000 -0.2500
vt 1.0000 0.5000 -0.2500
vt 0.5000 0.0000 -0.2500
vt 0.0000 0.0629 1.0000
vt 0.2500 0.0629 1.0000
vt 0.5000 0.0629 1.0000
vt 0.2500 1.0000 1.0000
vt 1.0000 0.0629 1.0000
# 24 texture coords

g Cylinder001
usemtl wire_087225143
s 1
f 1/1/1 2/2/1 3/3/1 4/4/1 
f 3/3/1 5/5/1 4/4/1 
s 2
f 6/6/2 3/7/2 2/8/2 7/9/2 
f 3/7/2 6/6/2 8/10/2 5/11/2 
s 1
f 9/12/3 6/6/3 7/9/3 10/13/3 
f 6/6/3 9/12/3 11/14/3 8/10/3 
s 2
f 1/1/4 4/4/4 9/12/4 10/13/4 
f 4/4/4 11/15/4 9/12/4 
s 4
f 2/16/5 1/17/5 10/18/5 7/19/5 
s 1
f 12/20/6 13/8/6 14/9/7 15/21/7 
s 2
f 15/21/8 14/9/8 16/13/9 17/22/9 
s 4
f 4/23/10 5/5/11 18/20/12 19/21/13 
s 8
f 4/23/14 19/21/15 20/22/16 11/15/17 
s 1
f 13/8/6 12/20/6 18/24/18 21/2/18 
s 4
f 22/9/19 14/9/19 13/8/19 21/8/19 
f 22/9/19 23/13/19 16/13/19 14/9/19 
s 2
f 17/22/9 16/13/9 23/13/20 20/22/20 
s 16
f 19/21/21 15/21/21 17/22/21 20/22/21 
f 19/21/21 18/20/21 12/20/21 15/21/21 
s 1
f 24/4/22 5/5/22 25/3/22 26/1/22 
f 26/1/22 25/3/22 27/2/22 
s 2
f 8/10/2 28/6/2 25/7/2 5/11/2 
f 28/6/2 29/9/2 27/8/2 25/7/2 
s 1
f 11/14/3 30/12/3 28/6/3 8/10/3 
f 30/12/3 31/13/3 29/9/3 28/6/3 
s 2
f 30/12/23 11/15/23 24/4/23 31/13/23 
f 31/13/23 24/4/23 26/1/23 
s 4
f 31/18/24 26/17/24 27/16/24 29/19/24 
s 1
f 32/20/25 33/21/26 34/9/26 35/8/25 
s 2
f 33/21/27 36/22/28 37/13/28 34/9/27 
s 4
f 24/23/29 38/21/30 18/20/31 5/5/32 
s 8
f 20/22/33 38/21/34 24/23/35 11/15/36 
s 1
f 35/8/25 21/2/18 18/24/18 32/20/25 
s 4
f 35/8/19 34/9/19 39/9/19 21/8/19 
f 39/9/19 34/9/19 37/13/19 23/13/19 
s 2
f 36/22/28 20/22/20 23/13/20 37/13/28 
s 16
f 36/22/21 33/21/21 38/21/21 20/22/21 
f 38/21/21 33/21/21 32/20/21 18/20/21 
# 34 polygons - 4 triangles

#
# object Sphere002
#

v  0.0000 18.1885 -1.1110
v  0.0000 19.8691 -2.6754
v  -1.0607 19.4695 -2.8579
v  -2.1213 19.0699 -3.0405
v  -1.5000 17.6233 -1.3691
v  -3.0000 17.1404 -3.9219
v  -2.1213 16.2589 -1.9924
v  -2.1213 15.2108 -4.8033
v  -1.5000 14.8945 -2.6156
v  0.0000 19.9513 -4.9700
v  -0.7500 19.6687 -5.0991
v  -0.9053 19.5691 -3.9785
v  -2.1213 18.0218 -5.8514
v  -1.8107 19.2280 -4.1343
v  -1.5000 19.3862 -5.2282
v  0.0000 18.3869 -6.6507
v  -1.5000 16.6574 -6.4747
v  0.0000 16.0922 -6.7329
v  0.0000 6.9477 -7.4951
v  0.0000 5.8982 -4.9613
v  -3.0000 5.8982 -4.9613
v  -3.0000 6.9477 -7.4951
v  -3.0000 9.4815 -8.5446
v  0.0000 9.4815 -8.5446
v  -3.0000 12.0153 -8.6148
v  0.0000 12.0153 -8.6148
v  -2.7292 12.3763 -2.4127
v  0.0000 12.6818 -1.2904
v  0.0000 14.3294 -2.8738
v  -2.9894 3.3764 -0.1040
v  -0.9013 3.2852 -0.1040
v  -0.9010 3.2921 1.8067
v  -2.9891 3.3833 1.8067
v  0.0000 6.9477 -2.4275
v  -3.0000 6.9477 -2.4275
v  -3.5390 9.4815 -3.2180
v  -3.5390 10.7142 -3.7286
v  -3.5390 11.2248 -4.9613
v  -3.5390 7.7382 -4.9613
v  -3.5390 10.7142 -6.1940
v  -3.5390 9.4815 -6.7045
v  -3.5390 8.2488 -6.1940
v  -3.5390 8.2488 -3.7286
v  -3.0000 9.4815 -1.3780
v  -3.1868 7.7503 1.0670
v  -1.2126 7.7503 -0.0157
v  0.0000 9.4815 -1.3779
v  -1.2126 7.5309 -1.9138
v  -3.1868 7.5309 -0.8311
v  -3.2709 12.7038 -4.9761
v  -2.3792 15.2156 -7.4076
v  0.0000 15.2156 -7.4076
v  -1.0696 14.0718 -0.7929
v  -0.9725 14.7578 0.8700
v  -1.2320 13.0884 1.0782
v  -1.5590 12.7526 -0.5867
v  -4.0774 14.1942 -1.9041
v  -4.1742 13.0856 -1.7414
v  -2.5819 12.6753 -1.7294
v  -2.3288 14.3797 -1.6131
v  0.0000 15.1116 -2.0335
v  -0.7500 15.3942 -1.9044
v  -0.7500 16.7586 -1.2811
v  0.0000 17.0411 -1.1520
v  -1.0607 16.0764 -1.5928
v  0.0000 16.7998 -0.6237
v  -0.8077 16.5172 -0.7528
v  -1.1183 15.8350 -1.0644
v  -0.8077 15.1529 -1.3761
v  0.0000 14.8703 -1.5052
v  -2.4674 19.3232 -3.6456
v  -1.5053 20.0986 -3.2915
v  -1.2132 20.2859 -4.3589
v  -1.7764 19.9103 -4.6629
v  -2.1868 20.7673 -2.7382
v  1.0607 19.4695 -2.8579
v  1.5000 17.6233 -1.3691
v  2.1213 19.0699 -3.0405
v  2.1213 16.2589 -1.9924
v  3.0000 17.1404 -3.9219
v  2.1213 15.2108 -4.8033
v  1.5000 14.8945 -2.6156
v  0.9053 19.5691 -3.9785
v  0.7500 19.6687 -5.0991
v  2.1213 18.0218 -5.8514
v  1.8107 19.2280 -4.1343
v  1.5000 19.3862 -5.2282
v  1.5000 16.6574 -6.4747
v  3.0000 6.9477 -7.4951
v  3.0000 5.8982 -4.9613
v  3.0000 9.4815 -8.5446
v  3.0000 12.0153 -8.6148
v  2.7292 12.3763 -2.4127
v  2.9894 3.3764 -0.1040
v  2.9891 3.3833 1.8067
v  0.9010 3.2921 1.8067
v  0.9013 3.2852 -0.1040
v  3.0000 6.9477 -2.4275
v  3.5390 7.7382 -4.9613
v  3.5390 8.2488 -6.1940
v  3.5390 9.4815 -6.7045
v  3.5390 11.2248 -4.9613
v  3.5390 10.7142 -6.1940
v  3.5390 10.7142 -3.7286
v  3.5390 9.4815 -3.2180
v  3.5390 8.2488 -3.7286
v  1.2126 7.7503 -0.0157
v  3.1868 7.7503 1.0670
v  3.0000 9.4815 -1.3780
v  1.2126 7.5309 -1.9138
v  3.1868 7.5309 -0.8311
v  3.2709 12.7038 -4.9761
v  2.3792 15.2156 -7.4076
v  1.2320 13.0884 1.0782
v  0.9725 14.7578 0.8700
v  1.0696 14.0718 -0.7929
v  1.5590 12.7526 -0.5867
v  4.1742 13.0856 -1.7414
v  4.0774 14.1942 -1.9041
v  2.5819 12.6753 -1.7294
v  2.3288 14.3797 -1.6131
v  0.7500 15.3942 -1.9044
v  0.7500 16.7586 -1.2811
v  1.0607 16.0764 -1.5928
v  0.8077 16.5172 -0.7528
v  1.1183 15.8350 -1.0644
v  0.8077 15.1529 -1.3761
v  2.4674 19.3232 -3.6456
v  1.5053 20.0986 -3.2915
v  1.2132 20.2859 -4.3589
v  1.7764 19.9103 -4.6629
v  2.1868 20.7673 -2.7382
# 132 vertices

vn 0.0000 0.4055 0.9141
vn 0.0000 0.9096 0.4155
vn -0.3796 0.7810 0.4959
vn -0.7898 0.4878 0.3718
vn -0.5294 0.2060 0.8230
vn -1.0000 0.0000 -0.0000
vn -0.7486 -0.2755 0.6031
vn -0.9239 -0.3481 -0.1590
vn -0.7150 -0.5325 0.4529
vn 0.0000 0.9564 -0.2920
vn -0.2781 0.8961 -0.3460
vn -0.3574 0.9334 0.0334
vn -0.7486 0.2755 -0.6031
vn -0.7474 0.6539 -0.1177
vn -0.5294 0.7570 -0.3831
vn 0.0000 0.4155 -0.9096
vn -0.4159 0.1907 -0.8892
vn 0.0000 0.4098 -0.9122
vn 0.0000 -0.9239 -0.3827
vn 0.0000 -1.0000 -0.0000
vn 0.0000 -0.2087 -0.9780
vn 0.0000 -0.3827 -0.9239
vn 0.0000 0.1540 -0.9881
vn 0.0000 0.1657 -0.9862
vn -0.0639 0.4805 0.8747
vn -0.3911 0.3104 0.8664
vn 0.0000 0.3105 0.9506
vn 0.0000 0.6929 0.7210
vn -0.0436 -0.9990 0.0036
vn 0.0000 -0.7482 0.6635
vn 0.0795 -0.9018 0.4249
vn -0.9843 0.0000 0.1764
vn -0.9767 0.1591 0.1440
vn -0.9902 0.1346 0.0373
vn -0.9843 -0.1764 -0.0000
vn -0.9925 0.0891 -0.0837
vn -0.9869 -0.0250 -0.1592
vn -0.9843 -0.1247 -0.1247
vn -0.9843 -0.1247 0.1247
vn 0.0000 0.8161 0.5779
vn 0.3692 0.3960 0.8408
vn 0.4162 0.2959 0.8598
vn 0.0000 0.7021 0.7121
vn 0.1097 -0.6360 0.7639
vn 0.1956 -0.9135 0.3566
vn 0.9858 -0.1670 0.0193
vn 0.9975 0.0712 -0.0025
vn 0.9973 0.0729 -0.0004
vn 0.9695 -0.2432 0.0292
vn 0.1434 0.3309 0.9327
vn 0.0166 0.3793 0.9251
vn -0.9990 -0.0452 0.0003
vn -1.0000 -0.0031 -0.0005
vn -0.9981 0.0374 -0.0481
vn -0.9990 -0.0455 0.0016
vn -0.4450 -0.3786 -0.8116
vn -0.1491 -0.2444 -0.9581
vn -0.0075 -0.1727 -0.9849
vn -0.3380 -0.3327 -0.8804
vn 0.0000 -0.3827 0.9239
vn 0.0000 -0.9934 0.1148
vn -0.9849 0.0474 0.1664
vn -0.9843 -0.1348 0.1136
vn -0.9597 -0.2811 -0.0000
vn -0.9597 -0.1988 -0.1988
vn -0.9403 0.2268 0.2539
vn -0.9601 0.2792 -0.0136
vn -0.9761 0.1729 -0.1317
vn -0.9583 -0.0540 -0.2807
vn 0.0000 0.4286 -0.9035
vn 0.0000 0.4672 -0.8841
vn -0.9308 0.3655 0.0089
vn -0.9585 0.2686 0.0954
vn 0.9635 -0.2623 -0.0542
vn 0.9882 -0.1530 0.0054
vn 0.9686 -0.2446 -0.0445
vn 0.9263 -0.3606 -0.1091
vn -0.1930 0.1544 0.9690
vn 0.0000 -0.0273 0.9996
vn -0.6746 0.1888 0.7136
vn -0.6730 0.1937 0.7139
vn -0.6803 0.1713 0.7126
vn -0.6826 0.1641 0.7121
vn -0.2355 -0.9388 0.2513
vn -0.1835 -0.9560 0.2289
vn -0.2191 -0.9446 0.2443
vn -0.2431 -0.9360 0.2546
vn 0.6287 -0.1798 -0.7566
vn 0.7457 -0.0655 -0.6631
vn 0.6242 -0.1837 -0.7594
vn 0.4670 -0.3030 -0.8307
vn 0.4383 0.8216 -0.3645
vn 0.0230 0.9864 -0.1628
vn -0.0880 0.9908 -0.1028
vn 0.2359 0.9332 -0.2710
vn -0.8747 0.4768 0.0875
vn -0.8754 0.3028 -0.3768
vn -0.1938 0.9524 0.2355
vn -0.4095 -0.9089 0.0789
vn 0.8952 -0.3076 0.3226
vn -0.1566 -0.7229 0.6729
vn -0.2706 -0.1377 0.9528
vn 0.0000 -0.0358 0.9994
vn -0.3827 -0.3839 0.8404
vn -0.3780 -0.5215 0.7649
vn -0.3704 0.8524 0.3691
vn -0.9200 0.3846 0.0752
vn -0.9200 -0.3087 -0.2414
vn -0.3704 -0.8371 -0.4026
vn 0.0000 -0.4155 0.9096
vn -0.4690 0.4642 0.7514
vn 0.7806 0.5790 0.2355
vn 0.4520 -0.4221 -0.7858
vn -0.4668 -0.7408 -0.4830
vn 0.1356 -0.5459 0.8268
vn 0.7820 0.5413 0.3090
vn -0.3206 0.8380 -0.4415
vn -0.8509 0.3879 -0.3542
vn 0.3796 0.7810 0.4959
vn 0.5294 0.2060 0.8230
vn 0.7898 0.4878 0.3718
vn 0.7486 -0.2755 0.6031
vn 1.0000 0.0000 -0.0000
vn 0.9239 -0.3481 -0.1590
vn 0.7150 -0.5325 0.4529
vn 0.3574 0.9334 0.0334
vn 0.2781 0.8961 -0.3460
vn 0.7486 0.2755 -0.6031
vn 0.7474 0.6539 -0.1177
vn 0.5294 0.7570 -0.3831
vn 0.4159 0.1907 -0.8892
vn 0.3911 0.3104 0.8664
vn 0.0639 0.4805 0.8747
vn 0.0436 -0.9990 0.0036
vn -0.0795 -0.9018 0.4249
vn 0.9843 -0.1764 -0.0000
vn 0.9843 -0.1247 -0.1247
vn 0.9869 -0.0250 -0.1592
vn 0.9902 0.1346 0.0373
vn 0.9925 0.0891 -0.0837
vn 0.9767 0.1591 0.1440
vn 0.9843 0.0000 0.1764
vn 0.9843 -0.1247 0.1247
vn -0.4162 0.2959 0.8598
vn -0.3692 0.3960 0.8408
vn -0.1097 -0.6360 0.7639
vn -0.1956 -0.9135 0.3566
vn -0.9975 0.0712 -0.0025
vn -0.9858 -0.1670 0.0193
vn -0.9695 -0.2432 0.0292
vn -0.9973 0.0729 -0.0004
vn -0.1434 0.3309 0.9327
vn -0.0166 0.3793 0.9251
vn 0.9990 -0.0455 0.0016
vn 0.9981 0.0374 -0.0481
vn 1.0000 -0.0031 -0.0005
vn 0.9990 -0.0452 0.0003
vn 0.0075 -0.1727 -0.9849
vn 0.1491 -0.2444 -0.9581
vn 0.4450 -0.3786 -0.8116
vn 0.3380 -0.3327 -0.8804
vn 0.9849 0.0474 0.1664
vn 0.9843 -0.1348 0.1136
vn 0.9597 -0.2811 -0.0000
vn 0.9597 -0.1988 -0.1988
vn 0.9403 0.2268 0.2539
vn 0.9601 0.2792 -0.0136
vn 0.9761 0.1729 -0.1317
vn 0.9583 -0.0540 -0.2807
vn 0.9585 0.2686 0.0954
vn 0.9308 0.3655 0.0089
vn -0.9686 -0.2446 -0.0445
vn -0.9882 -0.1530 0.0054
vn -0.9635 -0.2623 -0.0542
vn -0.9263 -0.3606 -0.1091
vn 0.1930 0.1544 0.9690
vn 0.6826 0.1641 0.7121
vn 0.6803 0.1713 0.7126
vn 0.6730 0.1937 0.7139
vn 0.6746 0.1888 0.7136
vn 0.1835 -0.9560 0.2289
vn 0.2355 -0.9388 0.2513
vn 0.2431 -0.9360 0.2546
vn 0.2191 -0.9446 0.2443
vn -0.7457 -0.0655 -0.6631
vn -0.6287 -0.1798 -0.7566
vn -0.4670 -0.3030 -0.8307
vn -0.6242 -0.1837 -0.7594
vn -0.4383 0.8216 -0.3645
vn -0.2359 0.9332 -0.2710
vn 0.0880 0.9908 -0.1028
vn -0.0230 0.9864 -0.1628
vn 0.8747 0.4768 0.0875
vn 0.8754 0.3028 -0.3768
vn 0.1938 0.9524 0.2355
vn 0.4095 -0.9089 0.0789
vn -0.8952 -0.3076 0.3226
vn 0.1566 -0.7229 0.6729
vn 0.2706 -0.1377 0.9528
vn 0.3827 -0.3839 0.8404
vn 0.3780 -0.5215 0.7649
vn 0.3704 0.8524 0.3691
vn 0.9200 0.3846 0.0752
vn 0.9200 -0.3087 -0.2414
vn 0.3704 -0.8371 -0.4026
vn 0.4690 0.4642 0.7514
vn -0.7806 0.5790 0.2355
vn -0.4520 -0.4221 -0.7858
vn 0.4668 -0.7408 -0.4830
vn -0.1356 -0.5459 0.8268
vn -0.7820 0.5413 0.3090
vn 0.3206 0.8380 -0.4415
vn 0.8509 0.3879 -0.3542
# 213 vertex normals

vt 0.7397 0.8503 0.0000
vt 0.7397 0.9307 0.0000
vt 0.6519 0.8970 0.0000
vt 0.5642 0.8632 0.0000
vt 0.6156 0.8026 0.0000
vt 0.4915 0.7001 0.0000
vt 0.5642 0.6873 0.0000
vt 0.5642 0.5371 0.0000
vt 0.6156 0.5720 0.0000
vt 0.7306 0.5073 0.0000
vt 0.6863 0.4988 0.0000
vt 0.6772 0.4958 0.0000
vt 0.6680 0.4929 0.0000
vt 0.7306 0.5048 0.0000
vt 0.6055 0.4496 0.0000
vt 0.6055 0.4809 0.0000
vt 0.6238 0.4857 0.0000
vt 0.6421 0.4904 0.0000
vt 0.5537 0.4233 0.0000
vt 0.7306 0.4605 0.0000
vt 0.6421 0.4089 0.0000
vt 0.7306 0.3920 0.0000
vt 0.2295 0.2098 0.0000
vt 0.2296 0.0022 0.0000
vt 0.4568 0.0023 0.0000
vt 0.4567 0.2099 0.0000
vt 0.4566 0.4174 0.0000
vt 0.2294 0.4172 0.0000
vt 0.4564 0.6092 0.0000
vt 0.2292 0.6088 0.0000
vt 0.6421 0.3563 0.0000
vt 0.5696 0.2811 0.0000
vt 0.7333 0.2929 0.0000
vt 0.7306 0.3394 0.0000
vt 0.5543 0.0123 0.0000
vt 0.6774 0.0096 0.0000
vt 0.6774 0.0098 0.0000
vt 0.5543 0.0125 0.0000
vt 0.7306 0.0876 0.0000
vt 0.7306 0.1190 0.0000
vt 0.5537 0.1190 0.0000
vt 0.5537 0.0876 0.0000
vt 0.5219 0.1946 0.0000
vt 0.5219 0.2314 0.0000
vt 0.5219 0.2467 0.0000
vt 0.5219 0.1426 0.0000
vt 0.5219 0.1578 0.0000
vt 0.5537 0.1946 0.0000
vt 0.5427 0.1429 0.0000
vt 0.6591 0.1429 0.0000
vt 0.7333 0.1973 0.0000
vt 0.6591 0.1364 0.0000
vt 0.5427 0.1364 0.0000
vt 0.5377 0.2908 0.0000
vt 0.5537 0.2703 0.0000
vt 0.4089 0.8681 0.0000
vt 0.2286 0.8676 0.0000
vt 0.6055 0.3657 0.0000
vt 0.5903 0.3659 0.0000
vt 0.6675 0.3317 0.0000
vt 0.6732 0.3522 0.0000
vt 0.6579 0.3023 0.0000
vt 0.6386 0.2923 0.0000
vt 0.4902 0.3353 0.0000
vt 0.4844 0.3022 0.0000
vt 0.5783 0.2900 0.0000
vt 0.5933 0.3409 0.0000
vt 0.2282 0.9513 0.0000
vt 0.3420 0.9980 0.0000
vt 0.7397 0.5242 0.0000
vt 0.7397 0.6031 0.0000
vt 0.6776 0.6269 0.0000
vt 0.6776 0.7422 0.0000
vt 0.7397 0.7661 0.0000
vt 0.6519 0.6846 0.0000
vt 0.7397 0.7626 0.0000
vt 0.6728 0.7387 0.0000
vt 0.6471 0.6811 0.0000
vt 0.6728 0.6234 0.0000
vt 0.7397 0.5995 0.0000
vt 0.5355 0.8655 0.0000
vt 0.6151 0.9311 0.0000
vt 0.6590 0.5172 0.0000
vt 0.6418 0.5117 0.0000
vt 0.6258 0.5060 0.0000
vt 0.5851 0.4885 0.0000
vt 0.5587 0.9941 0.0000
vt 0.6016 0.5316 0.0000
vt 0.8274 0.8970 0.0000
vt 0.8638 0.8026 0.0000
vt 0.9152 0.8632 0.0000
vt 0.9152 0.6873 0.0000
vt 0.9879 0.7001 0.0000
vt 0.9152 0.5371 0.0000
vt 0.8638 0.5720 0.0000
vt 0.7931 0.4929 0.0000
vt 0.7840 0.4958 0.0000
vt 0.7748 0.4988 0.0000
vt 0.8556 0.4809 0.0000
vt 0.9075 0.4233 0.0000
vt 0.8556 0.4496 0.0000
vt 0.8373 0.4857 0.0000
vt 0.8190 0.4904 0.0000
vt 0.8190 0.4089 0.0000
vt 0.0022 0.2096 0.0000
vt 0.0023 0.0020 0.0000
vt 0.0021 0.4170 0.0000
vt 0.0020 0.6084 0.0000
vt 0.8942 0.2838 0.0000
vt 0.8190 0.3563 0.0000
vt 0.9068 0.0123 0.0000
vt 0.9068 0.0125 0.0000
vt 0.7837 0.0098 0.0000
vt 0.7837 0.0096 0.0000
vt 0.9075 0.0876 0.0000
vt 0.9075 0.1190 0.0000
vt 0.9392 0.1426 0.0000
vt 0.9392 0.1578 0.0000
vt 0.9392 0.1946 0.0000
vt 0.9392 0.2467 0.0000
vt 0.9392 0.2314 0.0000
vt 0.8021 0.1429 0.0000
vt 0.9185 0.1429 0.0000
vt 0.9102 0.1973 0.0000
vt 0.8021 0.1364 0.0000
vt 0.9185 0.1364 0.0000
vt 0.9234 0.2908 0.0000
vt 0.9075 0.2703 0.0000
vt 0.9075 0.1946 0.0000
vt 0.0483 0.8669 0.0000
vt 0.8709 0.3659 0.0000
vt 0.8556 0.3657 0.0000
vt 0.8032 0.3023 0.0000
vt 0.7879 0.3522 0.0000
vt 0.7936 0.3317 0.0000
vt 0.8225 0.2923 0.0000
vt 0.9767 0.3022 0.0000
vt 0.9710 0.3353 0.0000
vt 0.8828 0.2900 0.0000
vt 0.8679 0.3409 0.0000
vt 0.1139 0.9970 0.0000
vt 0.8017 0.6269 0.0000
vt 0.8017 0.7422 0.0000
vt 0.8274 0.6846 0.0000
vt 0.8065 0.7387 0.0000
vt 0.8322 0.6811 0.0000
vt 0.8065 0.6234 0.0000
vt 0.9438 0.8655 0.0000
vt 0.8642 0.9311 0.0000
vt 0.8193 0.5117 0.0000
vt 0.8021 0.5172 0.0000
vt 0.8353 0.5060 0.0000
vt 0.8761 0.4885 0.0000
vt 0.9206 0.9941 0.0000
vt 0.8595 0.5316 0.0000
# 155 texture coords

g Sphere002
usemtl 01___Default
s 1
f 40/25/37 41/26/38 42/27/39 43/28/40 
f 40/25/37 43/28/40 44/29/41 
f 44/29/41 43/28/40 45/30/42 46/31/43 
f 45/30/42 47/32/44 48/33/45 46/31/43 
f 49/34/46 50/35/47 51/36/48 42/37/39 
f 41/38/38 49/34/46 42/37/39 
f 52/39/49 43/40/40 53/41/50 54/42/51 
f 43/40/40 52/39/49 45/43/42 
f 50/35/47 49/34/46 55/44/52 54/42/51 
f 55/44/52 52/39/49 54/42/51 
f 55/44/52 56/45/53 52/39/49 
f 55/44/52 57/46/54 56/45/53 
s 2
f 58/47/55 59/48/56 60/49/56 61/50/55 
s 1
f 62/51/57 63/52/57 58/47/58 61/50/58 
f 62/51/57 64/53/59 65/54/60 63/52/57 
s 4
f 48/55/61 66/56/62 67/57/63 68/58/64 
s 1
f 69/59/65 70/60/65 71/61/65 72/62/65 
s 2
f 59/63/56 73/64/66 74/65/67 60/66/56 
s 8
f 75/67/68 76/68/69 77/69/70 78/70/71 
f 78/70/71 77/69/70 79/68/72 80/67/73 
f 80/67/73 81/71/74 78/70/71 
f 82/71/75 75/67/68 78/70/71 
s 16
f 83/72/76 84/73/77 85/74/78 86/75/79 
s 2
f 87/76/80 88/77/81 74/65/67 73/64/66 
s 8
f 85/74/82 71/61/83 70/60/84 87/76/85 
s 16
f 72/62/86 71/61/87 85/74/78 84/73/77 
s 8
f 72/62/88 84/73/89 88/77/90 69/59/91 
s 4
f 87/76/92 70/60/93 69/59/94 88/77/95 
s 2
f 87/76/80 73/64/66 86/75/96 
s 8
f 87/76/85 86/75/97 85/74/82 
f 84/73/89 83/72/98 88/77/90 
f 88/77/90 83/72/98 74/65/99 
f 60/66/100 78/70/71 81/71/74 61/65/101 
f 60/66/100 74/65/99 82/71/75 78/70/71 
f 74/65/99 83/72/98 75/67/68 82/71/75 
f 66/56/102 76/68/69 75/67/68 83/72/98 
f 89/78/103 77/69/70 76/68/69 66/56/102 
f 89/78/103 64/79/104 79/68/72 77/69/70 
f 79/68/72 64/79/104 62/72/105 80/67/73 
f 61/65/101 81/71/74 80/67/73 62/72/105 
s 1
f 90/80/106 91/81/107 65/54/60 64/53/59 
s 8
f 89/78/103 47/82/108 90/83/109 64/79/104 
s 1
f 92/84/110 93/85/111 94/86/112 95/87/113 
s 4
f 66/56/62 83/72/114 86/75/115 67/57/63 
f 94/86/116 93/85/117 96/88/118 97/89/119 
s 2
f 98/90/120 95/87/121 94/86/122 97/89/123 
s 4
f 95/87/124 98/90/125 99/91/126 92/84/127 
s 8
f 92/84/128 99/91/129 96/88/130 93/85/131 
s 1
f 57/92/54 91/81/107 90/80/106 56/93/53 
f 45/43/42 52/39/49 56/45/53 47/82/44 
s 8
f 56/45/132 90/83/109 47/82/108 
s off
f 47/82/133 89/78/133 97/89/133 96/88/133 
f 99/91/134 48/55/134 47/82/134 96/88/134 
f 97/89/135 89/78/135 66/56/135 98/90/135 
f 66/56/136 48/55/136 99/91/136 98/90/136 
f 48/33/137 68/94/137 100/95/137 101/96/137 
s 1
f 44/29/41 102/97/138 103/98/139 40/25/37 
f 46/31/43 104/99/140 102/97/138 44/29/41 
f 48/33/45 101/96/141 104/99/140 46/31/43 
s off
f 105/100/142 103/98/142 102/97/142 106/101/142 
f 106/101/143 102/97/143 104/99/143 107/102/143 
f 107/102/144 104/99/144 101/96/144 108/103/144 
f 101/96/145 100/95/145 109/104/145 108/103/145 
f 106/101/146 107/102/146 108/103/146 109/104/146 
f 105/100/146 106/101/146 109/104/146 
s 1
f 50/35/47 54/42/51 53/41/50 51/36/48 
s off
f 110/105/147 43/28/147 42/27/147 111/106/147 
f 112/107/148 111/108/148 42/37/148 51/36/148 
f 51/36/149 53/41/149 113/109/149 112/107/149 
f 43/40/150 110/110/150 113/109/150 53/41/150 
f 110/105/151 111/106/151 114/111/151 
f 111/108/152 112/107/152 114/112/152 
f 112/107/153 113/109/153 114/112/153 
f 113/109/154 110/110/154 114/112/154 
s 1
f 115/113/155 40/25/37 116/114/156 117/115/157 
f 40/25/37 115/113/155 41/26/38 
f 117/115/157 116/114/156 118/116/158 119/117/159 
f 120/118/160 119/117/159 118/116/158 121/119/161 
f 115/120/155 122/121/162 123/122/163 49/34/46 
f 41/38/38 115/120/155 49/34/46 
f 117/123/157 119/124/159 124/125/164 125/126/165 
f 124/125/164 126/127/166 125/126/165 
f 49/34/46 123/122/163 126/127/166 55/44/52 
f 55/44/52 126/127/166 124/125/164 
f 55/44/52 124/125/164 127/128/167 
f 55/44/52 127/128/167 57/46/54 
s 2
f 128/129/55 129/130/56 59/48/56 58/47/55 
s 1
f 130/131/57 128/129/58 58/47/58 63/52/57 
f 65/54/60 131/132/59 130/131/57 63/52/57 
s 4
f 132/133/168 121/134/169 68/58/64 67/57/63 
s 1
f 133/135/170 134/136/170 135/137/170 136/138/170 
s 2
f 59/63/56 129/139/56 137/140/171 73/64/66 
s 8
f 138/141/172 139/142/173 140/143/174 141/144/175 
f 140/143/174 142/145/176 141/144/175 
f 143/145/177 144/143/178 138/141/172 141/144/175 
f 145/142/179 138/141/172 144/143/178 
s 16
f 86/75/79 146/146/180 147/147/181 148/148/76 
s 2
f 149/149/182 73/64/66 137/140/171 150/150/183 
s 8
f 135/137/184 146/146/185 149/149/186 136/138/187 
s 16
f 134/136/188 147/147/181 146/146/180 135/137/189 
s 8
f 133/135/190 150/150/191 147/147/192 134/136/193 
s 4
f 133/135/194 136/138/195 149/149/196 150/150/197 
s 2
f 149/149/182 86/75/96 73/64/66 
s 8
f 149/149/186 146/146/185 86/75/97 
f 147/147/192 150/150/191 148/148/198 
f 150/150/191 137/140/199 148/148/198 
f 139/142/173 138/141/172 129/139/200 128/140/201 
f 137/140/199 129/139/200 138/141/172 145/142/179 
f 145/142/179 144/143/178 148/148/198 137/140/199 
f 132/133/202 148/148/198 144/143/178 143/145/177 
f 151/151/203 132/133/202 143/145/177 141/144/175 
f 131/152/204 151/151/203 141/144/175 142/145/176 
f 142/145/176 140/143/174 130/153/205 131/152/204 
f 139/142/173 128/140/201 130/153/205 140/143/174 
s 1
f 131/132/59 65/54/60 91/81/107 152/154/106 
s 8
f 152/155/206 120/156/207 151/151/203 131/152/204 
s 1
f 153/157/208 154/158/209 155/159/210 156/160/211 
s 4
f 67/57/63 86/75/115 148/148/212 132/133/168 
f 157/161/213 158/162/214 154/158/215 153/157/216 
s 2
f 156/160/217 159/163/218 157/161/219 153/157/220 
s 4
f 159/163/221 156/160/222 155/159/223 160/164/224 
s 8
f 155/159/225 154/158/226 158/162/227 160/164/228 
s 1
f 57/92/54 127/165/167 152/154/106 91/81/107 
f 124/125/164 119/124/159 120/156/160 127/128/167 
s 8
f 127/128/229 120/156/207 152/155/206 
s off
f 158/162/230 157/161/230 151/151/230 120/156/230 
f 158/162/231 120/156/231 121/134/231 160/164/231 
f 151/151/232 157/161/232 159/163/232 132/133/232 
f 121/134/233 132/133/233 159/163/233 160/164/233 
f 100/95/234 68/94/234 121/119/234 161/166/234 
s 1
f 162/167/235 116/114/156 40/25/37 103/98/139 
f 163/168/236 118/116/158 116/114/156 162/167/235 
f 163/168/236 161/166/237 121/119/161 118/116/158 
s off
f 105/100/238 164/169/238 162/167/238 103/98/238 
f 162/167/239 164/169/239 165/170/239 163/168/239 
f 166/171/240 161/166/240 163/168/240 165/170/240 
f 100/95/241 161/166/241 166/171/241 109/104/241 
f 109/104/146 166/171/146 165/170/146 164/169/146 
f 105/100/146 109/104/146 164/169/146 
s 1
f 125/126/165 126/127/166 123/122/163 122/121/162 
s off
f 117/115/242 167/172/242 168/173/242 115/113/242 
f 122/121/243 115/120/243 168/174/243 169/175/243 
f 122/121/244 169/175/244 170/176/244 125/126/244 
f 117/123/245 125/126/245 170/176/245 167/177/245 
f 167/172/246 171/178/246 168/173/246 
f 168/174/247 171/179/247 169/175/247 
f 169/175/248 171/179/248 170/176/248 
f 170/176/249 171/179/249 167/177/249 
# 112 polygons - 36 triangles

